<mxfile host="app.diagrams.net" modified="2024-06-08T11:25:14.726Z" agent="Mozilla/5.0 (Windows NT 10.0; Win64; x64) AppleWebKit/537.36 (KHTML, like Gecko) Chrome/125.0.0.0 Safari/537.36" etag="Vst6uAWdbXWXvgzTHpu6" version="24.5.2" type="device">
  <diagram name="Page-1" id="CBCA7CRzVxEo9PEe0CzA">
    <mxGraphModel dx="880" dy="460" grid="1" gridSize="10" guides="1" tooltips="1" connect="1" arrows="1" fold="1" page="1" pageScale="1" pageWidth="1400" pageHeight="850" math="0" shadow="0">
      <root>
        <mxCell id="0" />
        <mxCell id="1" parent="0" />
        <mxCell id="9quC3I_CgFF8o1Q1J0Ln-75" style="edgeStyle=orthogonalEdgeStyle;rounded=0;orthogonalLoop=1;jettySize=auto;html=1;entryX=0;entryY=0.5;entryDx=0;entryDy=0;" edge="1" parent="1" source="9quC3I_CgFF8o1Q1J0Ln-3" target="9quC3I_CgFF8o1Q1J0Ln-39">
          <mxGeometry relative="1" as="geometry" />
        </mxCell>
        <mxCell id="9quC3I_CgFF8o1Q1J0Ln-76" style="edgeStyle=orthogonalEdgeStyle;rounded=0;orthogonalLoop=1;jettySize=auto;html=1;entryX=0;entryY=0.5;entryDx=0;entryDy=0;" edge="1" parent="1" source="9quC3I_CgFF8o1Q1J0Ln-3" target="9quC3I_CgFF8o1Q1J0Ln-71">
          <mxGeometry relative="1" as="geometry" />
        </mxCell>
        <mxCell id="9quC3I_CgFF8o1Q1J0Ln-77" style="edgeStyle=orthogonalEdgeStyle;rounded=0;orthogonalLoop=1;jettySize=auto;html=1;entryX=0;entryY=0.5;entryDx=0;entryDy=0;" edge="1" parent="1" source="9quC3I_CgFF8o1Q1J0Ln-3" target="9quC3I_CgFF8o1Q1J0Ln-72">
          <mxGeometry relative="1" as="geometry" />
        </mxCell>
        <mxCell id="9quC3I_CgFF8o1Q1J0Ln-81" style="edgeStyle=orthogonalEdgeStyle;rounded=0;orthogonalLoop=1;jettySize=auto;html=1;entryX=0;entryY=0.5;entryDx=0;entryDy=0;" edge="1" parent="1" source="9quC3I_CgFF8o1Q1J0Ln-3" target="9quC3I_CgFF8o1Q1J0Ln-79">
          <mxGeometry relative="1" as="geometry" />
        </mxCell>
        <mxCell id="9quC3I_CgFF8o1Q1J0Ln-3" value="Feedback" style="whiteSpace=wrap;html=1;align=center;fillColor=#d5e8d4;strokeColor=#82b366;fillStyle=solid;strokeWidth=2;" vertex="1" parent="1">
          <mxGeometry x="585" y="130" width="100" height="50" as="geometry" />
        </mxCell>
        <mxCell id="9quC3I_CgFF8o1Q1J0Ln-68" style="edgeStyle=orthogonalEdgeStyle;rounded=0;orthogonalLoop=1;jettySize=auto;html=1;entryX=0;entryY=0.5;entryDx=0;entryDy=0;" edge="1" parent="1" source="9quC3I_CgFF8o1Q1J0Ln-4" target="9quC3I_CgFF8o1Q1J0Ln-66">
          <mxGeometry relative="1" as="geometry" />
        </mxCell>
        <mxCell id="9quC3I_CgFF8o1Q1J0Ln-69" style="edgeStyle=orthogonalEdgeStyle;rounded=0;orthogonalLoop=1;jettySize=auto;html=1;entryX=0;entryY=0.5;entryDx=0;entryDy=0;" edge="1" parent="1" source="9quC3I_CgFF8o1Q1J0Ln-4" target="9quC3I_CgFF8o1Q1J0Ln-36">
          <mxGeometry relative="1" as="geometry" />
        </mxCell>
        <mxCell id="9quC3I_CgFF8o1Q1J0Ln-82" style="edgeStyle=orthogonalEdgeStyle;rounded=0;orthogonalLoop=1;jettySize=auto;html=1;entryX=0;entryY=0.5;entryDx=0;entryDy=0;" edge="1" parent="1" source="9quC3I_CgFF8o1Q1J0Ln-4" target="9quC3I_CgFF8o1Q1J0Ln-67">
          <mxGeometry relative="1" as="geometry" />
        </mxCell>
        <mxCell id="9quC3I_CgFF8o1Q1J0Ln-4" value="Notification" style="whiteSpace=wrap;html=1;align=center;fillColor=#d5e8d4;strokeColor=#82b366;strokeWidth=2;" vertex="1" parent="1">
          <mxGeometry x="580" y="30" width="110" height="50" as="geometry" />
        </mxCell>
        <mxCell id="9quC3I_CgFF8o1Q1J0Ln-64" style="edgeStyle=orthogonalEdgeStyle;rounded=0;orthogonalLoop=1;jettySize=auto;html=1;entryX=0.5;entryY=0;entryDx=0;entryDy=0;" edge="1" parent="1" source="9quC3I_CgFF8o1Q1J0Ln-5" target="9quC3I_CgFF8o1Q1J0Ln-40">
          <mxGeometry relative="1" as="geometry" />
        </mxCell>
        <mxCell id="9quC3I_CgFF8o1Q1J0Ln-65" style="edgeStyle=orthogonalEdgeStyle;rounded=0;orthogonalLoop=1;jettySize=auto;html=1;entryX=0.5;entryY=0;entryDx=0;entryDy=0;" edge="1" parent="1" source="9quC3I_CgFF8o1Q1J0Ln-5" target="9quC3I_CgFF8o1Q1J0Ln-63">
          <mxGeometry relative="1" as="geometry" />
        </mxCell>
        <mxCell id="9quC3I_CgFF8o1Q1J0Ln-84" style="edgeStyle=orthogonalEdgeStyle;rounded=0;orthogonalLoop=1;jettySize=auto;html=1;entryX=0.5;entryY=0;entryDx=0;entryDy=0;exitX=0.5;exitY=1;exitDx=0;exitDy=0;" edge="1" parent="1" source="9quC3I_CgFF8o1Q1J0Ln-5" target="9quC3I_CgFF8o1Q1J0Ln-83">
          <mxGeometry relative="1" as="geometry" />
        </mxCell>
        <mxCell id="9quC3I_CgFF8o1Q1J0Ln-5" value="Recommendation" style="whiteSpace=wrap;html=1;align=center;fillColor=#d5e8d4;strokeColor=#82b366;strokeWidth=2;" vertex="1" parent="1">
          <mxGeometry x="570" y="295" width="130" height="50" as="geometry" />
        </mxCell>
        <mxCell id="9quC3I_CgFF8o1Q1J0Ln-55" style="edgeStyle=orthogonalEdgeStyle;rounded=0;orthogonalLoop=1;jettySize=auto;html=1;" edge="1" parent="1" source="9quC3I_CgFF8o1Q1J0Ln-6" target="9quC3I_CgFF8o1Q1J0Ln-38">
          <mxGeometry relative="1" as="geometry" />
        </mxCell>
        <mxCell id="9quC3I_CgFF8o1Q1J0Ln-57" style="edgeStyle=orthogonalEdgeStyle;rounded=0;orthogonalLoop=1;jettySize=auto;html=1;entryX=1;entryY=0.5;entryDx=0;entryDy=0;" edge="1" parent="1" source="9quC3I_CgFF8o1Q1J0Ln-6" target="9quC3I_CgFF8o1Q1J0Ln-49">
          <mxGeometry relative="1" as="geometry" />
        </mxCell>
        <mxCell id="9quC3I_CgFF8o1Q1J0Ln-61" style="edgeStyle=orthogonalEdgeStyle;rounded=0;orthogonalLoop=1;jettySize=auto;html=1;entryX=1;entryY=0.5;entryDx=0;entryDy=0;" edge="1" parent="1" source="9quC3I_CgFF8o1Q1J0Ln-6" target="9quC3I_CgFF8o1Q1J0Ln-60">
          <mxGeometry relative="1" as="geometry" />
        </mxCell>
        <mxCell id="9quC3I_CgFF8o1Q1J0Ln-62" style="edgeStyle=orthogonalEdgeStyle;rounded=0;orthogonalLoop=1;jettySize=auto;html=1;entryX=1;entryY=0.5;entryDx=0;entryDy=0;" edge="1" parent="1" source="9quC3I_CgFF8o1Q1J0Ln-6" target="9quC3I_CgFF8o1Q1J0Ln-50">
          <mxGeometry relative="1" as="geometry" />
        </mxCell>
        <mxCell id="9quC3I_CgFF8o1Q1J0Ln-6" value="Menu Item" style="whiteSpace=wrap;html=1;align=center;fillColor=#d5e8d4;strokeColor=#82b366;strokeWidth=2;" vertex="1" parent="1">
          <mxGeometry x="240" y="245" width="100" height="50" as="geometry" />
        </mxCell>
        <mxCell id="9quC3I_CgFF8o1Q1J0Ln-44" style="edgeStyle=orthogonalEdgeStyle;rounded=0;orthogonalLoop=1;jettySize=auto;html=1;jumpStyle=line;" edge="1" parent="1" source="9quC3I_CgFF8o1Q1J0Ln-7" target="9quC3I_CgFF8o1Q1J0Ln-37">
          <mxGeometry relative="1" as="geometry" />
        </mxCell>
        <mxCell id="9quC3I_CgFF8o1Q1J0Ln-45" style="edgeStyle=orthogonalEdgeStyle;rounded=0;orthogonalLoop=1;jettySize=auto;html=1;" edge="1" parent="1" source="9quC3I_CgFF8o1Q1J0Ln-7" target="9quC3I_CgFF8o1Q1J0Ln-35">
          <mxGeometry relative="1" as="geometry" />
        </mxCell>
        <mxCell id="9quC3I_CgFF8o1Q1J0Ln-46" style="edgeStyle=orthogonalEdgeStyle;rounded=0;orthogonalLoop=1;jettySize=auto;html=1;entryX=1;entryY=0.5;entryDx=0;entryDy=0;" edge="1" parent="1" source="9quC3I_CgFF8o1Q1J0Ln-7" target="9quC3I_CgFF8o1Q1J0Ln-42">
          <mxGeometry relative="1" as="geometry" />
        </mxCell>
        <mxCell id="9quC3I_CgFF8o1Q1J0Ln-47" style="edgeStyle=orthogonalEdgeStyle;rounded=0;orthogonalLoop=1;jettySize=auto;html=1;entryX=1;entryY=0.5;entryDx=0;entryDy=0;" edge="1" parent="1" source="9quC3I_CgFF8o1Q1J0Ln-7" target="9quC3I_CgFF8o1Q1J0Ln-43">
          <mxGeometry relative="1" as="geometry" />
        </mxCell>
        <mxCell id="9quC3I_CgFF8o1Q1J0Ln-7" value="User" style="whiteSpace=wrap;html=1;align=center;fillColor=#d5e8d4;strokeColor=#82b366;strokeWidth=2;" vertex="1" parent="1">
          <mxGeometry x="230" y="35" width="90" height="50" as="geometry" />
        </mxCell>
        <mxCell id="9quC3I_CgFF8o1Q1J0Ln-8" value="&lt;div&gt;Recieves/Sends&lt;/div&gt;" style="shape=rhombus;perimeter=rhombusPerimeter;whiteSpace=wrap;html=1;align=center;" vertex="1" parent="1">
          <mxGeometry x="390" y="20" width="120" height="60" as="geometry" />
        </mxCell>
        <mxCell id="9quC3I_CgFF8o1Q1J0Ln-11" value="Has" style="shape=rhombus;perimeter=rhombusPerimeter;whiteSpace=wrap;html=1;align=center;" vertex="1" parent="1">
          <mxGeometry x="420" y="150" width="60" height="50" as="geometry" />
        </mxCell>
        <mxCell id="9quC3I_CgFF8o1Q1J0Ln-12" value="Gives" style="shape=rhombus;perimeter=rhombusPerimeter;whiteSpace=wrap;html=1;align=center;" vertex="1" parent="1">
          <mxGeometry x="420" y="90" width="60" height="50" as="geometry" />
        </mxCell>
        <mxCell id="9quC3I_CgFF8o1Q1J0Ln-13" value="Includes" style="shape=rhombus;perimeter=rhombusPerimeter;whiteSpace=wrap;html=1;align=center;" vertex="1" parent="1">
          <mxGeometry x="415" y="290" width="70" height="60" as="geometry" />
        </mxCell>
        <mxCell id="9quC3I_CgFF8o1Q1J0Ln-14" value="Collects" style="shape=rhombus;perimeter=rhombusPerimeter;whiteSpace=wrap;html=1;align=center;" vertex="1" parent="1">
          <mxGeometry x="597.5" y="210" width="75" height="50" as="geometry" />
        </mxCell>
        <mxCell id="9quC3I_CgFF8o1Q1J0Ln-15" value="Gets" style="shape=rhombus;perimeter=rhombusPerimeter;whiteSpace=wrap;html=1;align=center;" vertex="1" parent="1">
          <mxGeometry x="420" y="205" width="60" height="50" as="geometry" />
        </mxCell>
        <mxCell id="9quC3I_CgFF8o1Q1J0Ln-17" value="" style="edgeStyle=orthogonalEdgeStyle;fontSize=12;html=1;endArrow=ERmany;rounded=0;exitX=0;exitY=0.5;exitDx=0;exitDy=0;entryX=1;entryY=0.25;entryDx=0;entryDy=0;" edge="1" parent="1" source="9quC3I_CgFF8o1Q1J0Ln-8" target="9quC3I_CgFF8o1Q1J0Ln-7">
          <mxGeometry width="100" height="100" relative="1" as="geometry">
            <mxPoint x="450" y="195" as="sourcePoint" />
            <mxPoint x="230" y="130" as="targetPoint" />
          </mxGeometry>
        </mxCell>
        <mxCell id="9quC3I_CgFF8o1Q1J0Ln-18" value="" style="edgeStyle=orthogonalEdgeStyle;fontSize=12;html=1;endArrow=ERoneToMany;rounded=0;entryX=0;entryY=0.5;entryDx=0;entryDy=0;" edge="1" parent="1" source="9quC3I_CgFF8o1Q1J0Ln-8" target="9quC3I_CgFF8o1Q1J0Ln-4">
          <mxGeometry width="100" height="100" relative="1" as="geometry">
            <mxPoint x="370" y="290" as="sourcePoint" />
            <mxPoint x="470" y="190" as="targetPoint" />
          </mxGeometry>
        </mxCell>
        <mxCell id="9quC3I_CgFF8o1Q1J0Ln-19" value="" style="edgeStyle=orthogonalEdgeStyle;fontSize=12;html=1;endArrow=ERoneToMany;rounded=0;exitX=0.5;exitY=0;exitDx=0;exitDy=0;" edge="1" parent="1" source="9quC3I_CgFF8o1Q1J0Ln-14" target="9quC3I_CgFF8o1Q1J0Ln-3">
          <mxGeometry width="100" height="100" relative="1" as="geometry">
            <mxPoint x="460" y="110" as="sourcePoint" />
            <mxPoint x="750" y="150" as="targetPoint" />
          </mxGeometry>
        </mxCell>
        <mxCell id="9quC3I_CgFF8o1Q1J0Ln-20" value="" style="edgeStyle=orthogonalEdgeStyle;fontSize=12;html=1;endArrow=ERmandOne;rounded=0;exitX=0.5;exitY=1;exitDx=0;exitDy=0;" edge="1" parent="1" source="9quC3I_CgFF8o1Q1J0Ln-14" target="9quC3I_CgFF8o1Q1J0Ln-5">
          <mxGeometry width="100" height="100" relative="1" as="geometry">
            <mxPoint x="370" y="290" as="sourcePoint" />
            <mxPoint x="630" y="400" as="targetPoint" />
          </mxGeometry>
        </mxCell>
        <mxCell id="9quC3I_CgFF8o1Q1J0Ln-21" value="" style="edgeStyle=orthogonalEdgeStyle;fontSize=12;html=1;endArrow=ERmandOne;rounded=0;exitX=0;exitY=0.5;exitDx=0;exitDy=0;entryX=1;entryY=0.75;entryDx=0;entryDy=0;" edge="1" parent="1" source="9quC3I_CgFF8o1Q1J0Ln-12" target="9quC3I_CgFF8o1Q1J0Ln-7">
          <mxGeometry width="100" height="100" relative="1" as="geometry">
            <mxPoint x="330" y="151.25" as="sourcePoint" />
            <mxPoint x="140" y="88.75" as="targetPoint" />
          </mxGeometry>
        </mxCell>
        <mxCell id="9quC3I_CgFF8o1Q1J0Ln-22" value="" style="edgeStyle=orthogonalEdgeStyle;fontSize=12;html=1;endArrow=ERoneToMany;rounded=0;entryX=0;entryY=0.5;entryDx=0;entryDy=0;" edge="1" parent="1" source="9quC3I_CgFF8o1Q1J0Ln-12" target="9quC3I_CgFF8o1Q1J0Ln-3">
          <mxGeometry width="100" height="100" relative="1" as="geometry">
            <mxPoint x="570" y="120" as="sourcePoint" />
            <mxPoint x="190" y="250" as="targetPoint" />
          </mxGeometry>
        </mxCell>
        <mxCell id="9quC3I_CgFF8o1Q1J0Ln-23" value="" style="edgeStyle=orthogonalEdgeStyle;fontSize=12;html=1;endArrow=ERoneToMany;rounded=0;exitX=1;exitY=0.5;exitDx=0;exitDy=0;entryX=0;entryY=0.75;entryDx=0;entryDy=0;" edge="1" parent="1" source="9quC3I_CgFF8o1Q1J0Ln-11" target="9quC3I_CgFF8o1Q1J0Ln-3">
          <mxGeometry width="100" height="100" relative="1" as="geometry">
            <mxPoint x="640" y="330" as="sourcePoint" />
            <mxPoint x="631" y="140" as="targetPoint" />
          </mxGeometry>
        </mxCell>
        <mxCell id="9quC3I_CgFF8o1Q1J0Ln-26" value="" style="edgeStyle=elbowEdgeStyle;fontSize=12;html=1;endArrow=ERmandOne;rounded=0;exitX=0;exitY=0.5;exitDx=0;exitDy=0;entryX=1;entryY=0.25;entryDx=0;entryDy=0;" edge="1" parent="1" source="9quC3I_CgFF8o1Q1J0Ln-11" target="9quC3I_CgFF8o1Q1J0Ln-6">
          <mxGeometry width="100" height="100" relative="1" as="geometry">
            <mxPoint x="420" y="460" as="sourcePoint" />
            <mxPoint x="130" y="185" as="targetPoint" />
          </mxGeometry>
        </mxCell>
        <mxCell id="9quC3I_CgFF8o1Q1J0Ln-27" value="" style="edgeStyle=orthogonalEdgeStyle;fontSize=12;html=1;endArrow=ERmandOne;rounded=0;exitX=0;exitY=0.5;exitDx=0;exitDy=0;entryX=1;entryY=0.75;entryDx=0;entryDy=0;" edge="1" parent="1" source="9quC3I_CgFF8o1Q1J0Ln-13" target="9quC3I_CgFF8o1Q1J0Ln-6">
          <mxGeometry width="100" height="100" relative="1" as="geometry">
            <mxPoint x="280" y="340" as="sourcePoint" />
            <mxPoint x="150" y="280" as="targetPoint" />
          </mxGeometry>
        </mxCell>
        <mxCell id="9quC3I_CgFF8o1Q1J0Ln-29" value="" style="edgeStyle=orthogonalEdgeStyle;fontSize=12;html=1;endArrow=ERmany;rounded=0;entryX=0;entryY=0.75;entryDx=0;entryDy=0;exitX=1;exitY=0.5;exitDx=0;exitDy=0;" edge="1" parent="1" source="9quC3I_CgFF8o1Q1J0Ln-13" target="9quC3I_CgFF8o1Q1J0Ln-5">
          <mxGeometry width="100" height="100" relative="1" as="geometry">
            <mxPoint x="310" y="360" as="sourcePoint" />
            <mxPoint x="140" y="65" as="targetPoint" />
          </mxGeometry>
        </mxCell>
        <mxCell id="9quC3I_CgFF8o1Q1J0Ln-30" value="" style="edgeStyle=orthogonalEdgeStyle;fontSize=12;html=1;endArrow=ERmany;rounded=0;exitX=0.95;exitY=0.55;exitDx=0;exitDy=0;exitPerimeter=0;entryX=0;entryY=0.25;entryDx=0;entryDy=0;" edge="1" parent="1" source="9quC3I_CgFF8o1Q1J0Ln-15" target="9quC3I_CgFF8o1Q1J0Ln-5">
          <mxGeometry width="100" height="100" relative="1" as="geometry">
            <mxPoint x="320" y="290" as="sourcePoint" />
            <mxPoint x="155" y="200" as="targetPoint" />
          </mxGeometry>
        </mxCell>
        <mxCell id="9quC3I_CgFF8o1Q1J0Ln-32" value="" style="edgeStyle=orthogonalEdgeStyle;fontSize=12;html=1;endArrow=ERmandOne;rounded=0;exitX=0.108;exitY=0.45;exitDx=0;exitDy=0;exitPerimeter=0;" edge="1" parent="1" source="9quC3I_CgFF8o1Q1J0Ln-15" target="9quC3I_CgFF8o1Q1J0Ln-7">
          <mxGeometry width="100" height="100" relative="1" as="geometry">
            <mxPoint x="338" y="143" as="sourcePoint" />
            <mxPoint x="90" y="90" as="targetPoint" />
          </mxGeometry>
        </mxCell>
        <mxCell id="9quC3I_CgFF8o1Q1J0Ln-35" value="Emp ID" style="ellipse;whiteSpace=wrap;html=1;align=center;fontStyle=4;fillColor=#dae8fc;strokeColor=#6c8ebf;" vertex="1" parent="1">
          <mxGeometry x="30" y="50" width="100" height="40" as="geometry" />
        </mxCell>
        <mxCell id="9quC3I_CgFF8o1Q1J0Ln-36" value="ID" style="ellipse;whiteSpace=wrap;html=1;align=center;fontStyle=4;fillColor=#dae8fc;strokeColor=#6c8ebf;" vertex="1" parent="1">
          <mxGeometry x="760" y="50" width="100" height="40" as="geometry" />
        </mxCell>
        <mxCell id="9quC3I_CgFF8o1Q1J0Ln-37" value="Email" style="ellipse;whiteSpace=wrap;html=1;align=center;fontStyle=4;fillColor=#dae8fc;strokeColor=#6c8ebf;" vertex="1" parent="1">
          <mxGeometry x="30" y="5" width="100" height="40" as="geometry" />
        </mxCell>
        <mxCell id="9quC3I_CgFF8o1Q1J0Ln-39" value="Item ID" style="ellipse;whiteSpace=wrap;html=1;align=center;fontStyle=4;fillColor=#dae8fc;strokeColor=#6c8ebf;" vertex="1" parent="1">
          <mxGeometry x="760" y="145" width="100" height="40" as="geometry" />
        </mxCell>
        <mxCell id="9quC3I_CgFF8o1Q1J0Ln-40" value="ID" style="ellipse;whiteSpace=wrap;html=1;align=center;fontStyle=4;fillStyle=solid;fillColor=#dae8fc;strokeColor=#6c8ebf;" vertex="1" parent="1">
          <mxGeometry x="640" y="390" width="100" height="40" as="geometry" />
        </mxCell>
        <mxCell id="9quC3I_CgFF8o1Q1J0Ln-42" value="Name" style="ellipse;whiteSpace=wrap;html=1;align=center;fillColor=#dae8fc;strokeColor=#6c8ebf;" vertex="1" parent="1">
          <mxGeometry x="30" y="95" width="100" height="40" as="geometry" />
        </mxCell>
        <mxCell id="9quC3I_CgFF8o1Q1J0Ln-43" value="Role" style="ellipse;whiteSpace=wrap;html=1;align=center;fontStyle=4;fillColor=#dae8fc;strokeColor=#6c8ebf;" vertex="1" parent="1">
          <mxGeometry x="30" y="145" width="100" height="40" as="geometry" />
        </mxCell>
        <mxCell id="9quC3I_CgFF8o1Q1J0Ln-49" value="Price" style="ellipse;whiteSpace=wrap;html=1;align=center;fillColor=#dae8fc;strokeColor=#6c8ebf;" vertex="1" parent="1">
          <mxGeometry x="30" y="260" width="100" height="40" as="geometry" />
        </mxCell>
        <mxCell id="9quC3I_CgFF8o1Q1J0Ln-50" value="Availability Status" style="ellipse;whiteSpace=wrap;html=1;align=center;fillColor=#dae8fc;strokeColor=#6c8ebf;" vertex="1" parent="1">
          <mxGeometry x="30" y="360" width="100" height="40" as="geometry" />
        </mxCell>
        <mxCell id="9quC3I_CgFF8o1Q1J0Ln-38" value="Item ID" style="ellipse;whiteSpace=wrap;html=1;align=center;fontStyle=4;fillColor=#dae8fc;strokeColor=#6c8ebf;" vertex="1" parent="1">
          <mxGeometry x="30" y="215" width="100" height="40" as="geometry" />
        </mxCell>
        <mxCell id="9quC3I_CgFF8o1Q1J0Ln-60" value="Item Name" style="ellipse;whiteSpace=wrap;html=1;align=center;fillColor=#dae8fc;strokeColor=#6c8ebf;" vertex="1" parent="1">
          <mxGeometry x="30" y="310" width="100" height="40" as="geometry" />
        </mxCell>
        <mxCell id="9quC3I_CgFF8o1Q1J0Ln-63" value="Date" style="ellipse;whiteSpace=wrap;html=1;align=center;fillColor=#dae8fc;strokeColor=#6c8ebf;" vertex="1" parent="1">
          <mxGeometry x="530" y="390" width="100" height="40" as="geometry" />
        </mxCell>
        <mxCell id="9quC3I_CgFF8o1Q1J0Ln-66" value="Date" style="ellipse;whiteSpace=wrap;html=1;align=center;fillColor=#dae8fc;strokeColor=#6c8ebf;" vertex="1" parent="1">
          <mxGeometry x="760" y="5" width="100" height="40" as="geometry" />
        </mxCell>
        <mxCell id="9quC3I_CgFF8o1Q1J0Ln-67" value="Message" style="ellipse;whiteSpace=wrap;html=1;align=center;fillColor=#dae8fc;strokeColor=#6c8ebf;" vertex="1" parent="1">
          <mxGeometry x="760" y="95" width="100" height="40" as="geometry" />
        </mxCell>
        <mxCell id="9quC3I_CgFF8o1Q1J0Ln-71" value="Date of Feedback" style="ellipse;whiteSpace=wrap;html=1;align=center;fillColor=#dae8fc;strokeColor=#6c8ebf;" vertex="1" parent="1">
          <mxGeometry x="760" y="190" width="110" height="40" as="geometry" />
        </mxCell>
        <mxCell id="9quC3I_CgFF8o1Q1J0Ln-72" value="Rating" style="ellipse;whiteSpace=wrap;html=1;align=center;fillColor=#dae8fc;strokeColor=#6c8ebf;" vertex="1" parent="1">
          <mxGeometry x="760" y="240" width="100" height="40" as="geometry" />
        </mxCell>
        <mxCell id="9quC3I_CgFF8o1Q1J0Ln-78" value="Comments" style="ellipse;shape=doubleEllipse;margin=3;whiteSpace=wrap;html=1;align=center;fillColor=#dae8fc;strokeColor=#6c8ebf;" vertex="1" parent="1">
          <mxGeometry x="760" y="290" width="100" height="40" as="geometry" />
        </mxCell>
        <mxCell id="9quC3I_CgFF8o1Q1J0Ln-79" value="Sentiments" style="ellipse;shape=doubleEllipse;margin=3;whiteSpace=wrap;html=1;align=center;fillColor=#dae8fc;strokeColor=#6c8ebf;" vertex="1" parent="1">
          <mxGeometry x="760" y="340" width="100" height="40" as="geometry" />
        </mxCell>
        <mxCell id="9quC3I_CgFF8o1Q1J0Ln-80" style="edgeStyle=orthogonalEdgeStyle;rounded=0;orthogonalLoop=1;jettySize=auto;html=1;entryX=0;entryY=0.5;entryDx=0;entryDy=0;" edge="1" parent="1" source="9quC3I_CgFF8o1Q1J0Ln-3" target="9quC3I_CgFF8o1Q1J0Ln-78">
          <mxGeometry relative="1" as="geometry" />
        </mxCell>
        <mxCell id="9quC3I_CgFF8o1Q1J0Ln-83" value="MenuItemID" style="ellipse;whiteSpace=wrap;html=1;align=center;fillColor=#dae8fc;strokeColor=#6c8ebf;" vertex="1" parent="1">
          <mxGeometry x="415" y="390" width="100" height="40" as="geometry" />
        </mxCell>
      </root>
    </mxGraphModel>
  </diagram>
</mxfile>
